<svg width="25" height="25" viewBox="0 0 25 25" fill="none" xmlns="http://www.w3.org/2000/svg">
<g id="Frame 1321314500">
<path id="Vector" d="M18.95 22C16.8667 22 14.8083 21.5457 12.775 20.637C10.7417 19.7283 8.89167 18.441 7.225 16.775C5.55833 15.1083 4.271 13.2583 3.363 11.225C2.455 9.19167 2.00067 7.13334 2 5.05C2 4.75 2.1 4.5 2.3 4.3C2.5 4.1 2.75 4 3.05 4H7.1C7.33333 4 7.54167 4.07934 7.725 4.238C7.90833 4.39667 8.01667 4.584 8.05 4.8L8.7 8.3C8.73333 8.56667 8.725 8.79167 8.675 8.975C8.625 9.15834 8.53333 9.31667 8.4 9.45L5.975 11.9C6.30833 12.5167 6.704 13.1127 7.162 13.688C7.62 14.2633 8.12433 14.8173 8.675 15.35C9.19167 15.8667 9.73333 16.346 10.3 16.788C10.8667 17.23 11.4667 17.634 12.1 18L14.45 15.65C14.6 15.5 14.796 15.3873 15.038 15.312C15.28 15.2367 15.5173 15.216 15.75 15.25L19.2 15.95C19.4333 16.0167 19.625 16.1377 19.775 16.313C19.925 16.4883 20 16.684 20 16.9V20.95C20 21.25 19.9 21.5 19.7 21.7C19.5 21.9 19.25 22 18.95 22ZM5.025 10L6.675 8.35L6.25 6H4.025C4.10833 6.68334 4.225 7.35834 4.375 8.025C4.525 8.69167 4.74167 9.35 5.025 10ZM13.975 18.95C14.625 19.2333 15.2877 19.4583 15.963 19.625C16.6383 19.7917 17.3173 19.9 18 19.95V17.75L15.65 17.275L13.975 18.95ZM13 4C12.7167 4 12.4793 3.90434 12.288 3.713C12.0967 3.52167 12.0007 3.284 12 3C12 2.71667 12.096 2.479 12.288 2.287C12.48 2.095 12.7173 1.99934 13 2H21C21.2833 2 21.521 2.096 21.713 2.288C21.905 2.48 22.0007 2.71734 22 3C22 3.28334 21.904 3.521 21.712 3.713C21.52 3.905 21.2827 4.00067 21 4H13ZM13 8C12.7167 8 12.4793 7.90434 12.288 7.713C12.0967 7.52167 12.0007 7.284 12 7C12 6.71667 12.096 6.479 12.288 6.287C12.48 6.095 12.7173 5.99934 13 6H21C21.2833 6 21.521 6.096 21.713 6.288C21.905 6.48 22.0007 6.71734 22 7C22 7.28334 21.904 7.521 21.712 7.713C21.52 7.905 21.2827 8.00067 21 8H13ZM13 12C12.7167 12 12.4793 11.9043 12.288 11.713C12.0967 11.5217 12.0007 11.284 12 11C12 10.7167 12.096 10.479 12.288 10.287C12.48 10.095 12.7173 9.99934 13 10H21C21.2833 10 21.521 10.096 21.713 10.288C21.905 10.48 22.0007 10.7173 22 11C22 11.2833 21.904 11.521 21.712 11.713C21.52 11.905 21.2827 12.0007 21 12H13Z" fill="#2A295C"/>
</g>
</svg>
