<svg width="45" height="45" viewBox="0 0 45 45" fill="none" xmlns="http://www.w3.org/2000/svg">
<g id="material-symbols:cloud-off-outline">
<path id="Vector" d="M36.8026 41.9328L31.9443 37.1661H12.4193C9.60816 37.1661 7.22483 36.1884 5.26927 34.2328C3.31371 32.2773 2.33594 29.8939 2.33594 27.0828C2.33594 24.73 3.06194 22.637 4.51394 20.8036C5.96594 18.9703 7.83716 17.7939 10.1276 17.2745C10.2193 17.03 10.3109 16.7935 10.4026 16.565C10.4943 16.3364 10.5859 16.084 10.6776 15.8078L3.06927 8.19948L5.63594 5.63281L39.3693 39.3661L36.8026 41.9328ZM12.4193 33.4995H28.2776L13.5193 18.7411C13.4582 19.0773 13.4123 19.3981 13.3818 19.7036C13.3512 20.0092 13.3359 20.33 13.3359 20.6661H12.4193C10.647 20.6661 9.13455 21.2925 7.88177 22.5453C6.62899 23.7981 6.0026 25.3106 6.0026 27.0828C6.0026 28.855 6.62899 30.3675 7.88177 31.6203C9.13455 32.8731 10.647 33.4995 12.4193 33.4995ZM40.1026 34.8745L37.4443 32.3078C37.9637 31.88 38.3536 31.3838 38.6139 30.8191C38.8743 30.2545 39.0038 29.6201 39.0026 28.9161C39.0026 27.6328 38.5595 26.5481 37.6734 25.662C36.7873 24.7759 35.7026 24.3328 34.4193 24.3328H31.6693V20.6661C31.6693 18.13 30.7752 15.9685 28.9871 14.1816C27.199 12.3948 25.0375 11.5007 22.5026 11.4995C21.6776 11.4995 20.8832 11.5991 20.1193 11.7983C19.3554 11.9975 18.622 12.3104 17.9193 12.737L15.2609 10.0786C16.3304 9.34531 17.4689 8.78798 18.6764 8.40665C19.884 8.02531 21.1594 7.83403 22.5026 7.83281C26.0776 7.83281 29.1105 9.07826 31.6014 11.5691C34.0923 14.06 35.3372 17.0924 35.3359 20.6661C37.4443 20.9106 39.1939 21.8199 40.5848 23.3941C41.9757 24.9684 42.6705 26.809 42.6693 28.9161C42.6693 30.1078 42.4401 31.2158 41.9818 32.24C41.5234 33.2642 40.897 34.1424 40.1026 34.8745Z" fill="#222222"/>
</g>
</svg>
