<svg width="21" height="22" viewBox="0 0 21 22" fill="none" xmlns="http://www.w3.org/2000/svg">
<g id="ant-design:smile-outlined">
<path id="Vector" d="M5.90625 9.13379C5.90625 9.39486 6.00996 9.64524 6.19457 9.82985C6.37917 10.0145 6.62955 10.1182 6.89062 10.1182C7.1517 10.1182 7.40208 10.0145 7.58668 9.82985C7.77129 9.64524 7.875 9.39486 7.875 9.13379C7.875 8.87272 7.77129 8.62234 7.58668 8.43773C7.40208 8.25312 7.1517 8.14941 6.89062 8.14941C6.62955 8.14941 6.37917 8.25312 6.19457 8.43773C6.00996 8.62234 5.90625 8.87272 5.90625 9.13379ZM13.125 9.13379C13.125 9.39486 13.2287 9.64524 13.4133 9.82985C13.5979 10.0145 13.8483 10.1182 14.1094 10.1182C14.3704 10.1182 14.6208 10.0145 14.8054 9.82985C14.99 9.64524 15.0938 9.39486 15.0938 9.13379C15.0938 8.87272 14.99 8.62234 14.8054 8.43773C14.6208 8.25312 14.3704 8.14941 14.1094 8.14941C13.8483 8.14941 13.5979 8.25312 13.4133 8.43773C13.2287 8.62234 13.125 8.87272 13.125 9.13379ZM10.5 1.8125C5.42637 1.8125 1.3125 5.92637 1.3125 11C1.3125 16.0736 5.42637 20.1875 10.5 20.1875C15.5736 20.1875 19.6875 16.0736 19.6875 11C19.6875 5.92637 15.5736 1.8125 10.5 1.8125ZM15.8936 16.3936C15.1922 17.0949 14.376 17.6445 13.4675 18.0301C12.5303 18.4279 11.5315 18.6289 10.5 18.6289C9.46846 18.6289 8.46973 18.4279 7.53047 18.0301C6.62335 17.647 5.79937 17.0912 5.10439 16.3936C4.40303 15.6922 3.85342 14.876 3.46787 13.9675C3.07207 13.0303 2.87109 12.0315 2.87109 11C2.87109 9.96846 3.07207 8.96973 3.46992 8.03047C3.85302 7.12335 4.40884 6.29937 5.10645 5.60439C5.80781 4.90303 6.62402 4.35342 7.53252 3.96787C8.46973 3.57207 9.46846 3.37109 10.5 3.37109C11.5315 3.37109 12.5303 3.57207 13.4695 3.96992C14.3767 4.35302 15.2006 4.90884 15.8956 5.60645C16.597 6.30781 17.1466 7.12402 17.5321 8.03252C17.9279 8.96973 18.1289 9.96846 18.1289 11C18.1289 12.0315 17.9279 13.0303 17.5301 13.9695C17.1474 14.8763 16.5915 15.6997 15.8936 16.3936ZM13.6172 11.4307H12.6308C12.5446 11.4307 12.4708 11.4963 12.4646 11.5824C12.3867 12.5976 11.5356 13.3994 10.5 13.3994C9.46436 13.3994 8.61123 12.5976 8.53535 11.5824C8.5292 11.4963 8.45537 11.4307 8.36924 11.4307H7.38281C7.36056 11.4306 7.33853 11.4351 7.31807 11.4439C7.29762 11.4526 7.27915 11.4655 7.2638 11.4816C7.24846 11.4977 7.23655 11.5168 7.2288 11.5376C7.22106 11.5585 7.21764 11.5807 7.21875 11.6029C7.30898 13.3317 8.74658 14.7119 10.5 14.7119C12.2534 14.7119 13.691 13.3317 13.7812 11.6029C13.7824 11.5807 13.7789 11.5585 13.7712 11.5376C13.7635 11.5168 13.7515 11.4977 13.7362 11.4816C13.7208 11.4655 13.7024 11.4526 13.6819 11.4439C13.6615 11.4351 13.6394 11.4306 13.6172 11.4307Z" fill="#222222"/>
</g>
</svg>
