<svg width="25" height="24" viewBox="0 0 25 24" fill="none" xmlns="http://www.w3.org/2000/svg">
<g id="phone">
<path id="Icon" d="M8.13028 8.85335C8.82627 10.303 9.77506 11.6616 10.9766 12.8632C12.1782 14.0648 13.5369 15.0136 14.9865 15.7096C15.1112 15.7694 15.1735 15.7994 15.2524 15.8224C15.5328 15.9041 15.877 15.8454 16.1144 15.6754C16.1813 15.6275 16.2384 15.5704 16.3527 15.4561C16.7023 15.1064 16.8771 14.9316 17.0529 14.8174C17.7158 14.3864 18.5704 14.3864 19.2333 14.8174C19.4091 14.9316 19.5839 15.1064 19.9335 15.4561L20.1283 15.6509C20.6598 16.1824 20.9255 16.4481 21.0698 16.7335C21.3569 17.301 21.3569 17.9713 21.0698 18.5389C20.9255 18.8242 20.6598 19.09 20.1283 19.6214L19.9707 19.779C19.4411 20.3087 19.1763 20.5735 18.8162 20.7757C18.4167 21.0001 17.7962 21.1615 17.338 21.1601C16.9251 21.1589 16.6428 21.0788 16.0784 20.9186C13.045 20.0576 10.1826 18.4332 7.79466 16.0452C5.40668 13.6572 3.78221 10.7948 2.92124 7.76144C2.76103 7.19699 2.68092 6.91477 2.6797 6.50182C2.67833 6.0436 2.83969 5.42311 3.06411 5.0236C3.26636 4.66357 3.53117 4.39876 4.0608 3.86913L4.21843 3.7115C4.74987 3.18006 5.0156 2.91433 5.30098 2.76999C5.86854 2.48292 6.5388 2.48292 7.10636 2.76999C7.39174 2.91433 7.65747 3.18006 8.18891 3.7115L8.38378 3.90637C8.73338 4.25597 8.90819 4.43078 9.02247 4.60655C9.45347 5.26945 9.45347 6.12403 9.02247 6.78692C8.90819 6.96269 8.73338 7.1375 8.38378 7.4871C8.26947 7.60142 8.21231 7.65857 8.16447 7.72538C7.99446 7.96281 7.93576 8.30707 8.01748 8.58743C8.04048 8.66632 8.07041 8.72866 8.13028 8.85335Z" stroke="#283897" stroke-width="2" stroke-linecap="round" stroke-linejoin="round"/>
<path id="Icon_2" d="M20.6725 7.55719C20.4184 8.15807 20.021 8.68756 19.515 9.09937C19.009 9.51118 18.4099 9.79277 17.7699 9.91952C17.1299 10.0463 16.4687 10.0143 15.8439 9.82647C15.2191 9.63861 14.6499 9.30058 14.186 8.84191C13.722 8.38323 13.3775 7.8179 13.1825 7.19532C12.9876 6.57274 12.9481 5.91188 13.0675 5.27051C13.1869 4.62915 13.4617 4.0268 13.8677 3.51613C14.2737 3.00547 14.7986 2.60204 15.3965 2.3411M20.684 4.47513C20.8439 4.86113 20.942 5.26921 20.9753 5.68437C20.9835 5.78693 20.9876 5.83822 20.9672 5.88441C20.9502 5.923 20.9165 5.95951 20.8794 5.97956C20.835 6.00355 20.7795 6.00355 20.6685 6.00355H17.3136C17.2018 6.00355 17.1459 6.00355 17.1031 5.98178C17.0656 5.96264 17.035 5.93209 17.0159 5.89451C16.9941 5.8518 16.9941 5.79587 16.9941 5.68403V2.32912C16.9941 2.21814 16.9941 2.16265 17.0181 2.11824C17.0381 2.08113 17.0747 2.04743 17.1132 2.03041C17.1594 2.01005 17.2107 2.01416 17.3133 2.02238C17.7284 2.05567 18.1365 2.15374 18.5225 2.31363C19.0071 2.51434 19.4474 2.80853 19.8182 3.17941C20.1891 3.55028 20.4833 3.99057 20.684 4.47513Z" stroke="#283897" stroke-width="1.5" stroke-linecap="round" stroke-linejoin="round"/>
</g>
</svg>
