<svg width="21" height="22" viewBox="0 0 21 22" fill="none" xmlns="http://www.w3.org/2000/svg">
<g id="quill:user-neutral">
<path id="Vector" d="M8.85938 15.5938H12.1406M15.0938 12.3125C15.0938 12.4865 15.0246 12.6535 14.9015 12.7765C14.7785 12.8996 14.6115 12.9688 14.4375 12.9688C14.2635 12.9688 14.0965 12.8996 13.9735 12.7765C13.8504 12.6535 13.7812 12.4865 13.7812 12.3125C13.7812 12.1385 13.8504 11.9715 13.9735 11.8485C14.0965 11.7254 14.2635 11.6562 14.4375 11.6562C14.6115 11.6562 14.7785 11.7254 14.9015 11.8485C15.0246 11.9715 15.0938 12.1385 15.0938 12.3125ZM7.21875 12.3125C7.21875 12.4865 7.14961 12.6535 7.02654 12.7765C6.90347 12.8996 6.73655 12.9688 6.5625 12.9688C6.38845 12.9688 6.22153 12.8996 6.09846 12.7765C5.97539 12.6535 5.90625 12.4865 5.90625 12.3125C5.90625 12.1385 5.97539 11.9715 6.09846 11.8485C6.22153 11.7254 6.38845 11.6562 6.5625 11.6562C6.73655 11.6562 6.90347 11.7254 7.02654 11.8485C7.14961 11.9715 7.21875 12.1385 7.21875 12.3125ZM19.0312 11C19.0312 15.7119 15.2119 19.5312 10.5 19.5312C5.78813 19.5312 1.96875 15.7119 1.96875 11C1.96875 6.28813 5.78813 2.46875 10.5 2.46875C15.2119 2.46875 19.0312 6.28813 19.0312 11Z" stroke="#222222" stroke-width="1.5" stroke-linecap="round" stroke-linejoin="round"/>
</g>
</svg>
