<svg width="221" height="221" viewBox="0 0 221 221" fill="none" xmlns="http://www.w3.org/2000/svg">
<g id="Group 2">
<g id="Ellipse 1">
<mask id="path-1-inside-1_3541_207824" fill="white">
<path d="M110.75 0.25C125.228 0.25 139.565 3.1017 152.941 8.64228C166.317 14.1829 178.471 22.3038 188.709 32.5415C198.946 42.7791 207.067 54.933 212.608 68.3092C218.148 81.6853 221 96.0218 221 110.5C221 124.978 218.148 139.315 212.608 152.691C207.067 166.067 198.946 178.221 188.708 188.459C178.471 198.696 166.317 206.817 152.941 212.358C139.565 217.898 125.228 220.75 110.75 220.75L110.75 182.162C120.161 182.163 129.48 180.309 138.174 176.708C146.869 173.106 154.769 167.828 161.423 161.173C168.077 154.519 173.356 146.619 176.958 137.924C180.559 129.23 182.412 119.911 182.412 110.5C182.413 101.089 180.559 91.7705 176.958 83.076C173.356 74.3815 168.078 66.4814 161.423 59.827C154.769 53.1725 146.869 47.8939 138.174 44.2925C129.48 40.6911 120.161 38.8375 110.75 38.8375V0.25Z"/>
</mask>
<path d="M110.75 0.25C125.228 0.25 139.565 3.1017 152.941 8.64228C166.317 14.1829 178.471 22.3038 188.709 32.5415C198.946 42.7791 207.067 54.933 212.608 68.3092C218.148 81.6853 221 96.0218 221 110.5C221 124.978 218.148 139.315 212.608 152.691C207.067 166.067 198.946 178.221 188.708 188.459C178.471 198.696 166.317 206.817 152.941 212.358C139.565 217.898 125.228 220.75 110.75 220.75L110.75 182.162C120.161 182.163 129.48 180.309 138.174 176.708C146.869 173.106 154.769 167.828 161.423 161.173C168.077 154.519 173.356 146.619 176.958 137.924C180.559 129.23 182.412 119.911 182.412 110.5C182.413 101.089 180.559 91.7705 176.958 83.076C173.356 74.3815 168.078 66.4814 161.423 59.827C154.769 53.1725 146.869 47.8939 138.174 44.2925C129.48 40.6911 120.161 38.8375 110.75 38.8375V0.25Z" stroke="#007BFF" stroke-width="96.5575" stroke-linecap="square" mask="url(#path-1-inside-1_3541_207824)"/>
</g>
<g id="Ellipse 2">
<mask id="path-2-inside-2_3541_207824" fill="white">
<path d="M2.14832 91.5069C6.56809 66.2349 19.6631 43.2954 39.1776 26.6402C58.6921 9.98508 83.4042 0.65703 109.057 0.263004L109.649 38.846C92.9752 39.1021 76.9124 45.1653 64.228 55.9912C51.5435 66.817 43.0318 81.7277 40.1589 98.1545L2.14832 91.5069Z"/>
</mask>
<path d="M2.14832 91.5069C6.56809 66.2349 19.6631 43.2954 39.1776 26.6402C58.6921 9.98508 83.4042 0.65703 109.057 0.263004L109.649 38.846C92.9752 39.1021 76.9124 45.1653 64.228 55.9912C51.5435 66.817 43.0318 81.7277 40.1589 98.1545L2.14832 91.5069Z" stroke="#00CCCC" stroke-width="96.5575" stroke-linecap="square" mask="url(#path-2-inside-2_3541_207824)"/>
</g>
<g id="Ellipse 3">
<mask id="path-3-inside-3_3541_207824" fill="white">
<path d="M12.204 159.934C1.76449 139.123 -1.81873 115.542 1.96787 92.5693L40.0416 98.845C37.5803 113.777 39.9094 129.105 46.6951 142.632L12.204 159.934Z"/>
</mask>
<path d="M12.204 159.934C1.76449 139.123 -1.81873 115.542 1.96787 92.5693L40.0416 98.845C37.5803 113.777 39.9094 129.105 46.6951 142.632L12.204 159.934Z" stroke="#EBEBF0" stroke-width="96.5575" stroke-linecap="square" mask="url(#path-3-inside-3_3541_207824)"/>
</g>
<g id="Ellipse 4">
<mask id="path-4-inside-4_3541_207824" fill="white">
<path d="M108.499 220.727C88.7584 220.324 69.4884 214.627 52.7022 204.231C35.916 193.835 22.2296 179.122 13.0728 161.63L47.2598 143.734C53.2117 155.105 62.1079 164.668 73.0189 171.425C83.93 178.182 96.4554 181.885 109.287 182.148L108.499 220.727Z"/>
</mask>
<path d="M108.499 220.727C88.7584 220.324 69.4884 214.627 52.7022 204.231C35.916 193.835 22.2296 179.122 13.0728 161.63L47.2598 143.734C53.2117 155.105 62.1079 164.668 73.0189 171.425C83.93 178.182 96.4554 181.885 109.287 182.148L108.499 220.727Z" stroke="#6F42C1" stroke-width="96.5575" stroke-linecap="square" mask="url(#path-4-inside-4_3541_207824)"/>
</g>
</g>
</svg>
