<svg width="20" height="21" viewBox="0 0 20 21" fill="none" xmlns="http://www.w3.org/2000/svg">
<g id="Frame">
<path id="Vector" d="M9.03488 13.9493C9.03488 13.0555 9.15 12.3431 9.38023 11.8122C9.61047 11.2813 10.064 10.7 10.7407 10.0682C11.4244 9.42979 11.857 8.97616 12.0384 8.70735C12.3174 8.2974 12.457 7.85385 12.457 7.3767C12.457 6.74498 12.293 6.26447 11.9651 5.93517C11.6442 5.59915 11.1698 5.43114 10.5419 5.43114C9.94186 5.43114 9.45698 5.59579 9.08721 5.92509C8.72442 6.24767 8.54302 6.68786 8.54302 7.24565H6C6.01395 6.05614 6.43256 5.11528 7.25581 4.42307C8.08605 3.73087 9.1814 3.38477 10.5419 3.38477C11.9442 3.38477 13.036 3.72751 13.8174 4.41299C14.6058 5.09848 15 6.05614 15 7.28598C15 8.38141 14.4698 9.46003 13.4093 10.5219L12.1221 11.7416C11.6616 12.2457 11.4244 12.9815 11.4105 13.9493H9.03488ZM8.85698 17.0844C8.85698 16.6879 8.98605 16.3686 9.24419 16.1267C9.50233 15.878 9.85116 15.7537 10.2907 15.7537C10.7372 15.7537 11.0895 15.8814 11.3477 16.1368C11.6058 16.3854 11.7349 16.7013 11.7349 17.0844C11.7349 17.454 11.6093 17.7631 11.3581 18.0118C11.107 18.2604 10.7512 18.3848 10.2907 18.3848C9.83023 18.3848 9.47442 18.2604 9.22326 18.0118C8.97907 17.7631 8.85698 17.454 8.85698 17.0844Z" fill="#283897"/>
</g>
</svg>
