<svg width="21" height="22" viewBox="0 0 21 22" fill="none" xmlns="http://www.w3.org/2000/svg">
<g id="tdesign:unhappy-1">
<path id="Vector" d="M10.5 3.125C9.46584 3.125 8.44181 3.32869 7.48637 3.72445C6.53093 4.1202 5.6628 4.70027 4.93153 5.43153C4.20027 6.1628 3.6202 7.03093 3.22445 7.98637C2.82869 8.94181 2.625 9.96584 2.625 11C2.625 12.0342 2.82869 13.0582 3.22445 14.0136C3.6202 14.9691 4.20027 15.8372 4.93153 16.5685C5.6628 17.2997 6.53093 17.8798 7.48637 18.2756C8.44181 18.6713 9.46584 18.875 10.5 18.875C12.5886 18.875 14.5916 18.0453 16.0685 16.5685C17.5453 15.0916 18.375 13.0886 18.375 11C18.375 8.91142 17.5453 6.90838 16.0685 5.43153C14.5916 3.95468 12.5886 3.125 10.5 3.125ZM0.875 11C0.875 5.68438 5.18438 1.375 10.5 1.375C15.8156 1.375 20.125 5.68438 20.125 11C20.125 16.3156 15.8156 20.625 10.5 20.625C5.18438 20.625 0.875 16.3156 0.875 11ZM5.25 8.375H8.75V10.125H5.25V8.375ZM12.25 8.375H15.75V10.125H12.25V8.375ZM6.71125 14.0625C7.09509 13.3973 7.64733 12.8449 8.31243 12.4609C8.97752 12.0769 9.73201 11.8748 10.5 11.875C11.268 11.8748 12.0225 12.0769 12.6876 12.4609C13.3527 12.8449 13.9049 13.3973 14.2887 14.0625L14.7271 14.8194L13.2125 15.6952L12.775 14.9384C12.5449 14.5386 12.2134 14.2067 11.8139 13.9761C11.4145 13.7454 10.9612 13.6243 10.5 13.625C10.0389 13.6247 9.58592 13.7459 9.18655 13.9763C8.78717 14.2067 8.45553 14.5382 8.225 14.9375L7.7875 15.6952L6.27288 14.8194L6.71125 14.0625Z" fill="#222222"/>
</g>
</svg>
