<svg width="24" height="24" viewBox="0 0 24 24" fill="none" xmlns="http://www.w3.org/2000/svg">
<g id="phone">
<path id="Icon" d="M7.38028 8.85335C8.07627 10.303 9.02506 11.6616 10.2266 12.8632C11.4282 14.0648 12.7869 15.0136 14.2365 15.7096C14.3612 15.7694 14.4235 15.7994 14.5024 15.8224C14.7828 15.9041 15.127 15.8454 15.3644 15.6754C15.4313 15.6275 15.4884 15.5704 15.6027 15.4561C15.9523 15.1064 16.1271 14.9316 16.3029 14.8174C16.9658 14.3864 17.8204 14.3864 18.4833 14.8174C18.6591 14.9316 18.8339 15.1064 19.1835 15.4561L19.3783 15.6509C19.9098 16.1824 20.1755 16.4481 20.3198 16.7335C20.6069 17.301 20.6069 17.9713 20.3198 18.5389C20.1755 18.8242 19.9098 19.09 19.3783 19.6214L19.2207 19.779C18.6911 20.3087 18.4263 20.5735 18.0662 20.7757C17.6667 21.0001 17.0462 21.1615 16.588 21.1601C16.1751 21.1589 15.8928 21.0788 15.3284 20.9186C12.295 20.0576 9.43264 18.4332 7.04466 16.0452C4.65668 13.6572 3.03221 10.7948 2.17124 7.76144C2.01103 7.19699 1.93092 6.91477 1.9297 6.50182C1.92833 6.0436 2.08969 5.42311 2.31411 5.0236C2.51636 4.66357 2.78117 4.39876 3.3108 3.86913L3.46843 3.7115C3.99987 3.18006 4.2656 2.91433 4.55098 2.76999C5.11854 2.48292 5.7888 2.48292 6.35636 2.76999C6.64174 2.91433 6.90747 3.18006 7.43891 3.7115L7.63378 3.90637C7.98338 4.25597 8.15819 4.43078 8.27247 4.60655C8.70347 5.26945 8.70347 6.12403 8.27247 6.78692C8.15819 6.96269 7.98338 7.1375 7.63378 7.4871C7.51947 7.60142 7.46231 7.65857 7.41447 7.72538C7.24446 7.96281 7.18576 8.30707 7.26748 8.58743C7.29048 8.66632 7.32041 8.72866 7.38028 8.85335Z" stroke="#283897" stroke-width="2" stroke-linecap="round" stroke-linejoin="round"/>
<path id="Icon_2" d="M18.0633 1.25V2.48418M18.0633 9.02532V11M14.9778 6.06329H13.25M22.6297 6.06329H21.8892M21.251 9.25098L20.9019 8.9019M21.3532 2.81286L20.6551 3.51101M14.5689 9.5577L15.9652 8.16139M14.6711 2.71061L15.7184 3.75785" stroke="#283897" stroke-width="1.5" stroke-linecap="round" stroke-linejoin="round"/>
</g>
</svg>
