<svg width="18" height="18" viewBox="0 0 18 18" fill="none" xmlns="http://www.w3.org/2000/svg">
<g id="magnifier">
<path id="Icon" fill-rule="evenodd" clip-rule="evenodd" d="M10.6487 11.8418C9.7153 12.5305 8.56143 12.9375 7.3125 12.9375C4.2059 12.9375 1.6875 10.4191 1.6875 7.3125C1.6875 4.2059 4.2059 1.6875 7.3125 1.6875C10.4191 1.6875 12.9375 4.2059 12.9375 7.3125C12.9375 8.56142 12.5305 9.71528 11.8418 10.6486L15.6676 14.4744C15.7774 14.5843 15.7774 14.7623 15.6676 14.8722L14.8722 15.6676C14.7624 15.7774 14.5843 15.7774 14.4745 15.6676L10.6487 11.8418ZM11.2852 7.33008C11.2852 9.51441 9.51441 11.2852 7.33008 11.2852C5.14575 11.2852 3.375 9.51441 3.375 7.33008C3.375 5.14575 5.14575 3.375 7.33008 3.375C9.51441 3.375 11.2852 5.14575 11.2852 7.33008Z" fill="#2A295C"/>
</g>
</svg>
